<?xml version="1.0" encoding="UTF-8"?>
<svg xmlns="http://www.w3.org/2000/svg" xmlns:xlink="http://www.w3.org/1999/xlink" width="198pt" height="198pt" viewBox="0 0 198 198" version="1.1"><symbol overflow="visible" id="1"><path style="stroke:none;" d="M 22.953125 7.34375 L 22.953125 -7.203125 C 24.546875 -8.597656 26.789063 -9.769531 29.6875 -10.71875 C 32.59375 -11.675781 35.796875 -12.15625 39.296875 -12.15625 L 60.90625 -12.15625 C 63.195313 -12.15625 64.941406 -12.328125 66.140625 -12.671875 C 67.347656 -13.023438 67.953125 -14 67.953125 -15.59375 C 56.453125 -16.300781 50.703125 -18.753906 50.703125 -22.953125 C 50.703125 -23.546875 50.851563 -24.144531 51.15625 -24.75 L 56.40625 -38.25 C 52.90625 -40.445313 50.128906 -43.617188 48.078125 -47.765625 C 46.023438 -51.921875 45 -56.347656 45 -61.046875 C 45 -67.546875 47.296875 -73.769531 51.890625 -79.71875 C 56.492188 -85.675781 62.796875 -90.90625 70.796875 -95.40625 C 67.992188 -97 66.59375 -99.445313 66.59375 -102.75 C 66.59375 -105.050781 67.414063 -107.023438 69.0625 -108.671875 C 70.71875 -110.328125 72.695313 -111.15625 75 -111.15625 C 77.300781 -111.15625 79.273438 -110.328125 80.921875 -108.671875 C 82.578125 -107.023438 83.40625 -105.050781 83.40625 -102.75 C 83.40625 -99.445313 82.003906 -97 79.203125 -95.40625 C 87.203125 -90.90625 93.5 -85.675781 98.09375 -79.71875 C 102.695313 -73.769531 105 -67.546875 105 -61.046875 C 105 -56.347656 103.972656 -51.921875 101.921875 -47.765625 C 99.867188 -43.617188 97.09375 -40.445313 93.59375 -38.25 L 98.84375 -24.75 C 99.144531 -24.144531 99.296875 -23.546875 99.296875 -22.953125 C 99.296875 -18.753906 93.546875 -16.300781 82.046875 -15.59375 C 82.046875 -14 82.644531 -13.023438 83.84375 -12.671875 C 85.050781 -12.328125 86.800781 -12.15625 89.09375 -12.15625 L 110.703125 -12.15625 C 114.203125 -12.15625 117.398438 -11.675781 120.296875 -10.71875 C 123.203125 -9.769531 125.453125 -8.597656 127.046875 -7.203125 L 127.046875 7.34375 L 123.296875 7.34375 C 122.597656 3.050781 118.800781 0.90625 111.90625 0.90625 L 83.84375 0.90625 C 79.445313 0.90625 76.5 -0.445313 75 -3.15625 C 73.5 -0.445313 70.550781 0.90625 66.15625 0.90625 L 38.09375 0.90625 C 31.195313 0.90625 27.398438 3.050781 26.703125 7.34375 Z M 72.453125 -43.796875 L 77.546875 -43.796875 L 77.546875 -70.5 L 89.546875 -70.5 L 89.546875 -75.296875 L 77.546875 -75.296875 L 77.546875 -87.296875 L 72.453125 -87.296875 L 72.453125 -75.296875 L 60.453125 -75.296875 L 60.453125 -70.5 L 72.453125 -70.5 Z M 60.453125 -28.953125 C 63.347656 -29.953125 68.195313 -30.453125 75 -30.453125 C 81.800781 -30.453125 86.648438 -29.953125 89.546875 -28.953125 L 87.296875 -34.5 C 85.097656 -34.101563 83.023438 -33.800781 81.078125 -33.59375 C 79.128906 -33.394531 77.101563 -33.296875 75 -33.296875 C 72.894531 -33.296875 70.867188 -33.394531 68.921875 -33.59375 C 66.972656 -33.800781 64.898438 -34.101563 62.703125 -34.5 Z M 75 -20.40625 C 77.800781 -20.40625 80.175781 -20.476563 82.125 -20.625 C 84.070313 -20.769531 85.695313 -20.945313 87 -21.15625 C 89.601563 -21.65625 90.90625 -22.253906 90.90625 -22.953125 C 90.90625 -23.648438 89.503906 -24.300781 86.703125 -24.90625 C 85.296875 -25.195313 83.617188 -25.394531 81.671875 -25.5 C 79.722656 -25.601563 77.5 -25.65625 75 -25.65625 C 72.5 -25.65625 70.273438 -25.601563 68.328125 -25.5 C 66.378906 -25.394531 64.703125 -25.195313 63.296875 -24.90625 C 60.492188 -24.300781 59.09375 -23.648438 59.09375 -22.953125 C 59.09375 -22.253906 60.394531 -21.65625 63 -21.15625 C 64.300781 -20.945313 65.925781 -20.769531 67.875 -20.625 C 69.820313 -20.476563 72.195313 -20.40625 75 -20.40625 Z M 75 -20.40625"/></symbol><g style="fill:rgb(0%,0%,0%);fill-opacity:1;"><use xlink:href="#1" x="24.000001" y="153.500751"/></g></svg>