<?xml version="1.0" encoding="UTF-8"?>
<svg xmlns="http://www.w3.org/2000/svg" xmlns:xlink="http://www.w3.org/1999/xlink" width="198pt" height="198pt" viewBox="0 0 198 198" version="1.1"><symbol overflow="visible" id="1"><path style="stroke:none;" d="M 75 5.09375 C 70.394531 5.09375 66.242188 4.867188 62.546875 4.421875 C 58.847656 3.972656 55.648438 3.398438 52.953125 2.703125 C 47.546875 1.203125 44.84375 -0.894531 44.84375 -3.59375 L 46.953125 -34.046875 C 35.953125 -45.648438 30.453125 -56.101563 30.453125 -65.40625 C 30.453125 -71.695313 32.078125 -76.691406 35.328125 -80.390625 C 38.578125 -84.097656 43.050781 -85.953125 48.75 -85.953125 C 55.351563 -85.953125 61.050781 -83.550781 65.84375 -78.75 L 65.25 -88.65625 C 64.945313 -92.351563 67.347656 -94.601563 72.453125 -95.40625 L 72.453125 -103.796875 L 66.296875 -103.796875 L 66.296875 -107.40625 L 72.453125 -107.40625 L 72.453125 -112.953125 L 77.546875 -112.953125 L 77.546875 -107.40625 L 83.703125 -107.40625 L 83.703125 -103.796875 L 77.546875 -103.796875 L 77.546875 -95.40625 C 82.648438 -94.601563 85.050781 -92.351563 84.75 -88.65625 L 84.15625 -78.75 C 88.945313 -83.550781 94.644531 -85.953125 101.25 -85.953125 C 106.945313 -85.953125 111.421875 -84.097656 114.671875 -80.390625 C 117.921875 -76.691406 119.546875 -71.695313 119.546875 -65.40625 C 119.546875 -56.101563 114.046875 -45.648438 103.046875 -34.046875 L 105.15625 -3.59375 C 105.15625 -0.894531 102.453125 1.203125 97.046875 2.703125 C 94.347656 3.398438 91.171875 3.972656 87.515625 4.421875 C 83.867188 4.867188 79.695313 5.09375 75 5.09375 Z M 75 -63.296875 C 76.5 -67.296875 77.898438 -70.347656 79.203125 -72.453125 L 79.203125 -86.703125 C 79.203125 -90.003906 77.800781 -91.65625 75 -91.65625 C 72.195313 -91.65625 70.796875 -90.003906 70.796875 -86.703125 L 70.796875 -72.453125 C 72.097656 -70.347656 73.5 -67.296875 75 -63.296875 Z M 75 -67.203125 C 74.800781 -68.097656 74.523438 -69.144531 74.171875 -70.34375 C 73.828125 -71.550781 73.453125 -72.65625 73.046875 -73.65625 L 73.046875 -84.296875 C 73.046875 -85.097656 73.144531 -85.875 73.34375 -86.625 C 73.550781 -87.375 74.101563 -87.75 75 -87.75 C 75.894531 -87.75 76.441406 -87.375 76.640625 -86.625 C 76.847656 -85.875 76.953125 -85.097656 76.953125 -84.296875 L 76.953125 -73.65625 C 76.546875 -72.65625 76.164063 -71.550781 75.8125 -70.34375 C 75.46875 -69.144531 75.195313 -68.097656 75 -67.203125 Z M 52.046875 -37.046875 C 59.546875 -38.546875 66.144531 -39.296875 71.84375 -39.296875 L 71.84375 -44.09375 C 71.84375 -48.5 71.269531 -52.800781 70.125 -57 C 68.976563 -61.195313 67.351563 -64.992188 65.25 -68.390625 C 63.144531 -71.796875 60.71875 -74.523438 57.96875 -76.578125 C 55.21875 -78.628906 52.242188 -79.65625 49.046875 -79.65625 C 45.347656 -79.65625 42.445313 -78.328125 40.34375 -75.671875 C 38.25 -73.023438 37.203125 -69.351563 37.203125 -64.65625 C 37.203125 -60.851563 38.597656 -56.398438 41.390625 -51.296875 C 44.191406 -46.203125 47.742188 -41.453125 52.046875 -37.046875 Z M 97.953125 -37.046875 C 102.253906 -41.453125 105.800781 -46.203125 108.59375 -51.296875 C 111.394531 -56.398438 112.796875 -60.851563 112.796875 -64.65625 C 112.796875 -69.351563 111.769531 -73.023438 109.71875 -75.671875 C 107.675781 -78.328125 104.753906 -79.65625 100.953125 -79.65625 C 97.753906 -79.65625 94.78125 -78.628906 92.03125 -76.578125 C 89.28125 -74.523438 86.851563 -71.796875 84.75 -68.390625 C 82.644531 -64.992188 81.019531 -61.195313 79.875 -57 C 78.726563 -52.800781 78.15625 -48.5 78.15625 -44.09375 L 78.15625 -39.296875 C 83.851563 -39.296875 90.453125 -38.546875 97.953125 -37.046875 Z M 52.65625 -41.84375 C 45.445313 -50.25 41.84375 -57.398438 41.84375 -63.296875 C 41.84375 -66.796875 42.566406 -69.59375 44.015625 -71.6875 C 45.472656 -73.789063 47.648438 -74.84375 50.546875 -74.84375 C 53.847656 -74.84375 56.820313 -73.316406 59.46875 -70.265625 C 62.125 -67.222656 64.222656 -63.375 65.765625 -58.71875 C 67.316406 -54.070313 68.09375 -49.25 68.09375 -44.25 L 68.09375 -43.5 C 66.300781 -43.5 64.128906 -43.347656 61.578125 -43.046875 C 59.023438 -42.742188 56.050781 -42.34375 52.65625 -41.84375 Z M 97.34375 -41.84375 C 93.945313 -42.34375 90.972656 -42.742188 88.421875 -43.046875 C 85.867188 -43.347656 83.695313 -43.5 81.90625 -43.5 L 81.90625 -44.25 C 81.90625 -49.25 82.675781 -54.070313 84.21875 -58.71875 C 85.769531 -63.375 87.894531 -67.222656 90.59375 -70.265625 C 93.300781 -73.316406 96.253906 -74.84375 99.453125 -74.84375 C 102.347656 -74.84375 104.519531 -73.789063 105.96875 -71.6875 C 107.425781 -69.59375 108.15625 -66.796875 108.15625 -63.296875 C 108.15625 -57.398438 104.550781 -50.25 97.34375 -41.84375 Z M 52.953125 -22.34375 C 53.953125 -22.75 55.625 -23.148438 57.96875 -23.546875 C 60.320313 -23.953125 63.023438 -24.28125 66.078125 -24.53125 C 69.128906 -24.78125 72.101563 -24.90625 75 -24.90625 C 78 -24.90625 81 -24.78125 84 -24.53125 C 87 -24.28125 89.671875 -23.953125 92.015625 -23.546875 C 94.367188 -23.148438 96.046875 -22.75 97.046875 -22.34375 L 96.75 -26.546875 C 93.550781 -27.347656 90.148438 -27.972656 86.546875 -28.421875 C 82.953125 -28.867188 79.101563 -29.09375 75 -29.09375 C 71 -29.09375 67.171875 -28.867188 63.515625 -28.421875 C 59.867188 -27.972656 56.445313 -27.347656 53.25 -26.546875 Z M 51.90625 -10.796875 C 57.195313 -12.597656 64.894531 -13.5 75 -13.5 C 85.195313 -13.5 92.894531 -12.597656 98.09375 -10.796875 L 97.796875 -14.703125 C 94.992188 -15.503906 91.492188 -16.203125 87.296875 -16.796875 C 83.097656 -17.398438 79 -17.703125 75 -17.703125 C 71 -17.703125 66.898438 -17.398438 62.703125 -16.796875 C 58.503906 -16.203125 55.003906 -15.503906 52.203125 -14.703125 Z M 51.90625 -10.796875"/></symbol><g style="fill:rgb(0%,0%,0%);fill-opacity:1;"><use xlink:href="#1" x="24.000001" y="153.500712"/></g></svg>