<?xml version="1.0" encoding="UTF-8"?>
<svg xmlns="http://www.w3.org/2000/svg" xmlns:xlink="http://www.w3.org/1999/xlink" width="198pt" height="198pt" viewBox="0 0 198 198" version="1.1"><symbol overflow="visible" id="1"><path style="stroke:none;" d="M 75 5.09375 C 70.394531 5.09375 66.242188 4.867188 62.546875 4.421875 C 58.847656 3.972656 55.648438 3.398438 52.953125 2.703125 C 47.546875 1.203125 44.84375 -0.894531 44.84375 -3.59375 L 46.953125 -34.046875 C 35.953125 -45.648438 30.453125 -56.101563 30.453125 -65.40625 C 30.453125 -71.695313 32.078125 -76.691406 35.328125 -80.390625 C 38.578125 -84.097656 43.050781 -85.953125 48.75 -85.953125 C 55.351563 -85.953125 61.050781 -83.550781 65.84375 -78.75 L 65.25 -88.65625 C 64.945313 -92.351563 67.347656 -94.601563 72.453125 -95.40625 L 72.453125 -103.796875 L 66.296875 -103.796875 L 66.296875 -107.40625 L 72.453125 -107.40625 L 72.453125 -112.953125 L 77.546875 -112.953125 L 77.546875 -107.40625 L 83.703125 -107.40625 L 83.703125 -103.796875 L 77.546875 -103.796875 L 77.546875 -95.40625 C 82.648438 -94.601563 85.050781 -92.25 84.75 -88.34375 L 84.15625 -78.75 C 88.851563 -83.550781 94.550781 -85.953125 101.25 -85.953125 C 106.945313 -85.953125 111.421875 -84.097656 114.671875 -80.390625 C 117.921875 -76.691406 119.546875 -71.695313 119.546875 -65.40625 C 119.546875 -61.101563 118.320313 -56.425781 115.875 -51.375 C 113.425781 -46.320313 109.148438 -40.546875 103.046875 -34.046875 L 105.15625 -3.59375 C 105.15625 -0.800781 102.453125 1.34375 97.046875 2.84375 C 91.546875 4.34375 84.195313 5.09375 75 5.09375 Z M 75 -63.296875 C 76.195313 -66.992188 77.597656 -70.046875 79.203125 -72.453125 L 79.203125 -86.703125 C 79.203125 -90.003906 77.800781 -91.65625 75 -91.65625 C 72.195313 -91.65625 70.796875 -90.003906 70.796875 -86.703125 L 70.796875 -72.453125 C 72.097656 -70.347656 73.5 -67.296875 75 -63.296875 Z M 52.046875 -37.046875 C 59.546875 -38.546875 66.144531 -39.296875 71.84375 -39.296875 L 71.84375 -44.09375 C 71.84375 -48.5 71.269531 -52.800781 70.125 -57 C 68.976563 -61.195313 67.351563 -64.992188 65.25 -68.390625 C 63.144531 -71.796875 60.71875 -74.523438 57.96875 -76.578125 C 55.21875 -78.628906 52.242188 -79.65625 49.046875 -79.65625 C 45.347656 -79.65625 42.445313 -78.328125 40.34375 -75.671875 C 38.25 -73.023438 37.203125 -69.351563 37.203125 -64.65625 C 37.203125 -60.851563 38.597656 -56.398438 41.390625 -51.296875 C 44.191406 -46.203125 47.742188 -41.453125 52.046875 -37.046875 Z M 97.953125 -37.046875 C 102.347656 -41.648438 105.921875 -46.453125 108.671875 -51.453125 C 111.421875 -56.453125 112.796875 -60.851563 112.796875 -64.65625 C 112.796875 -69.15625 111.796875 -72.78125 109.796875 -75.53125 C 107.796875 -78.28125 104.847656 -79.65625 100.953125 -79.65625 C 97.753906 -79.65625 94.753906 -78.628906 91.953125 -76.578125 C 89.148438 -74.523438 86.722656 -71.796875 84.671875 -68.390625 C 82.617188 -64.992188 81.019531 -61.21875 79.875 -57.0625 C 78.726563 -52.914063 78.15625 -48.796875 78.15625 -44.703125 L 78.15625 -39.296875 C 80.550781 -39.296875 83.648438 -39.070313 87.453125 -38.625 C 91.253906 -38.175781 94.753906 -37.648438 97.953125 -37.046875 Z M 52.953125 -23.25 C 53.953125 -23.644531 55.625 -24.039063 57.96875 -24.4375 C 60.320313 -24.84375 63.023438 -25.171875 66.078125 -25.421875 C 69.128906 -25.671875 72.101563 -25.796875 75 -25.796875 C 77.800781 -25.796875 80.675781 -25.671875 83.625 -25.421875 C 86.570313 -25.171875 89.269531 -24.84375 91.71875 -24.4375 C 94.175781 -24.039063 95.953125 -23.644531 97.046875 -23.25 L 96.296875 -31.953125 C 92.992188 -32.753906 89.566406 -33.378906 86.015625 -33.828125 C 82.472656 -34.273438 78.800781 -34.5 75 -34.5 C 71.101563 -34.5 67.378906 -34.273438 63.828125 -33.828125 C 60.273438 -33.378906 56.898438 -32.753906 53.703125 -31.953125 Z M 52.203125 -10.203125 C 57.503906 -12.003906 65.101563 -12.90625 75 -12.90625 C 84.800781 -12.90625 92.398438 -12.003906 97.796875 -10.203125 L 97.34375 -18.453125 C 90.25 -20.453125 82.800781 -21.453125 75 -21.453125 C 71 -21.453125 66.972656 -21.148438 62.921875 -20.546875 C 58.867188 -19.953125 55.445313 -19.253906 52.65625 -18.453125 Z M 75 0.75 C 90.800781 0.75 98.703125 -0.800781 98.703125 -3.90625 C 98.703125 -5.40625 96.648438 -6.550781 92.546875 -7.34375 C 90.453125 -7.75 87.953125 -8.050781 85.046875 -8.25 C 82.148438 -8.445313 78.800781 -8.546875 75 -8.546875 C 71.300781 -8.546875 68 -8.46875 65.09375 -8.3125 C 62.195313 -8.164063 59.695313 -7.84375 57.59375 -7.34375 C 53.394531 -6.445313 51.296875 -5.300781 51.296875 -3.90625 C 51.296875 -0.800781 59.195313 0.75 75 0.75 Z M 75 0.75"/></symbol><g style="fill:rgb(0%,0%,0%);fill-opacity:1;"><use xlink:href="#1" x="24.000001" y="153.500643"/></g></svg>