<?xml version="1.0" encoding="UTF-8"?>
<svg xmlns="http://www.w3.org/2000/svg" xmlns:xlink="http://www.w3.org/1999/xlink" width="198pt" height="198pt" viewBox="0 0 198 198" version="1.1"><symbol overflow="visible" id="1"><path style="stroke:none;" d="M 27.90625 0 L 27.90625 -5.546875 C 27.90625 -13.347656 29.128906 -20.523438 31.578125 -27.078125 C 34.023438 -33.628906 37.5 -39.253906 42 -43.953125 C 46.5 -48.648438 51.800781 -52 57.90625 -54 C 51.101563 -58.394531 47.703125 -64.046875 47.703125 -70.953125 C 47.703125 -76.253906 49.347656 -80.851563 52.640625 -84.75 C 55.941406 -88.644531 60.644531 -91.546875 66.75 -93.453125 C 64.644531 -94.253906 62.96875 -95.503906 61.71875 -97.203125 C 60.46875 -98.898438 59.84375 -100.898438 59.84375 -103.203125 C 59.84375 -106.296875 61.21875 -108.742188 63.96875 -110.546875 C 66.71875 -112.347656 70.394531 -113.25 75 -113.25 C 79.601563 -113.25 83.28125 -112.347656 86.03125 -110.546875 C 88.78125 -108.742188 90.15625 -106.296875 90.15625 -103.203125 C 90.15625 -100.898438 89.503906 -98.875 88.203125 -97.125 C 86.898438 -95.375 85.25 -94.148438 83.25 -93.453125 C 89.25 -91.546875 93.921875 -88.644531 97.265625 -84.75 C 100.617188 -80.851563 102.296875 -76.253906 102.296875 -70.953125 C 102.296875 -64.046875 98.894531 -58.394531 92.09375 -54 C 98.300781 -52 103.65625 -48.648438 108.15625 -43.953125 C 112.65625 -39.253906 116.101563 -33.628906 118.5 -27.078125 C 120.894531 -20.523438 122.09375 -13.347656 122.09375 -5.546875 L 122.09375 0 Z M 66.75 -96.59375 C 65.445313 -97.59375 64.796875 -99.59375 64.796875 -102.59375 C 64.796875 -105.695313 66.25 -108.148438 69.15625 -109.953125 C 68.050781 -109.953125 66.75 -109.222656 65.25 -107.765625 C 63.75 -106.316406 63 -104.546875 63 -102.453125 C 63 -101.046875 63.398438 -99.769531 64.203125 -98.625 C 65.003906 -97.476563 65.851563 -96.800781 66.75 -96.59375 Z M 60.90625 -59.40625 C 59.601563 -61.300781 58.625 -63.148438 57.96875 -64.953125 C 57.320313 -66.753906 57 -69.050781 57 -71.84375 C 57 -78.75 59.945313 -84.050781 65.84375 -87.75 C 64.144531 -87.644531 62.296875 -86.867188 60.296875 -85.421875 C 58.296875 -83.972656 56.617188 -82.046875 55.265625 -79.640625 C 53.921875 -77.242188 53.25 -74.597656 53.25 -71.703125 C 53.25 -68.898438 54.046875 -66.320313 55.640625 -63.96875 C 57.242188 -61.625 59 -60.101563 60.90625 -59.40625 Z M 35.703125 -9.296875 L 40.796875 -9.296875 L 40.796875 -11.40625 C 41.097656 -19.90625 42.523438 -26.78125 45.078125 -32.03125 C 47.628906 -37.28125 51.101563 -41.503906 55.5 -44.703125 C 49.394531 -42.703125 44.566406 -38.800781 41.015625 -33 C 37.472656 -27.195313 35.703125 -20.5 35.703125 -12.90625 Z M 35.703125 -9.296875"/></symbol><g style="fill:rgb(0%,0%,0%);fill-opacity:1;"><use xlink:href="#1" x="24.000001" y="153.500777"/></g></svg>