<?xml version="1.0" encoding="UTF-8"?>
<svg xmlns="http://www.w3.org/2000/svg" xmlns:xlink="http://www.w3.org/1999/xlink" width="198pt" height="198pt" viewBox="0 0 198 198" version="1.1"><symbol overflow="visible" id="1"><path style="stroke:none;" d="M 75 5.09375 C 70.394531 5.09375 66.242188 4.867188 62.546875 4.421875 C 58.847656 3.972656 55.648438 3.398438 52.953125 2.703125 C 47.546875 1.203125 44.84375 -0.894531 44.84375 -3.59375 L 45.296875 -35.84375 L 31.5 -77.703125 C 31.195313 -77.597656 30.820313 -77.519531 30.375 -77.46875 C 29.925781 -77.425781 29.398438 -77.40625 28.796875 -77.40625 C 25.992188 -77.40625 23.617188 -78.378906 21.671875 -80.328125 C 19.722656 -82.273438 18.75 -84.800781 18.75 -87.90625 C 18.75 -90.695313 19.75 -93.039063 21.75 -94.9375 C 23.75 -96.84375 26.148438 -97.796875 28.953125 -97.796875 C 31.847656 -97.796875 34.269531 -96.820313 36.21875 -94.875 C 38.175781 -92.925781 39.15625 -90.5 39.15625 -87.59375 C 39.15625 -86 38.753906 -84.375 37.953125 -82.71875 C 37.148438 -81.070313 36.050781 -79.847656 34.65625 -79.046875 L 54.296875 -45.90625 L 49.953125 -89.703125 L 49.65625 -89.703125 C 47.050781 -89.703125 44.722656 -90.703125 42.671875 -92.703125 C 40.617188 -94.703125 39.59375 -97.101563 39.59375 -99.90625 C 39.59375 -102.695313 40.566406 -105.117188 42.515625 -107.171875 C 44.472656 -109.222656 46.851563 -110.25 49.65625 -110.25 C 52.445313 -110.25 54.867188 -109.273438 56.921875 -107.328125 C 58.972656 -105.378906 60 -102.953125 60 -100.046875 C 60 -97.847656 59.421875 -95.898438 58.265625 -94.203125 C 57.117188 -92.503906 55.5 -91.253906 53.40625 -90.453125 L 67.5 -47.703125 L 73.203125 -94.796875 C 70.898438 -95.203125 68.921875 -96.328125 67.265625 -98.171875 C 65.617188 -100.023438 64.796875 -102.25 64.796875 -104.84375 C 64.796875 -107.75 65.796875 -110.175781 67.796875 -112.125 C 69.796875 -114.070313 72.195313 -115.046875 75 -115.046875 C 77.800781 -115.046875 80.203125 -114.070313 82.203125 -112.125 C 84.203125 -110.175781 85.203125 -107.75 85.203125 -104.84375 C 85.203125 -102.25 84.375 -100.023438 82.71875 -98.171875 C 81.070313 -96.328125 79.097656 -95.203125 76.796875 -94.796875 L 82.5 -47.703125 L 96.59375 -90.453125 C 94.5 -91.253906 92.875 -92.503906 91.71875 -94.203125 C 90.570313 -95.898438 90 -97.847656 90 -100.046875 C 90 -102.953125 91.023438 -105.378906 93.078125 -107.328125 C 95.128906 -109.273438 97.550781 -110.25 100.34375 -110.25 C 103.25 -110.25 105.648438 -109.222656 107.546875 -107.171875 C 109.453125 -105.117188 110.40625 -102.695313 110.40625 -99.90625 C 110.40625 -97.101563 109.378906 -94.703125 107.328125 -92.703125 C 105.273438 -90.703125 102.945313 -89.703125 100.34375 -89.703125 L 100.046875 -89.703125 L 95.703125 -45.90625 L 115.34375 -79.046875 C 114.050781 -79.847656 112.976563 -81.070313 112.125 -82.71875 C 111.269531 -84.375 110.84375 -86 110.84375 -87.59375 C 110.84375 -90.5 111.816406 -92.925781 113.765625 -94.875 C 115.722656 -96.820313 118.148438 -97.796875 121.046875 -97.796875 C 123.953125 -97.796875 126.378906 -96.84375 128.328125 -94.9375 C 130.273438 -93.039063 131.25 -90.695313 131.25 -87.90625 C 131.25 -84.800781 130.273438 -82.273438 128.328125 -80.328125 C 126.378906 -78.378906 124.003906 -77.40625 121.203125 -77.40625 C 120.597656 -77.40625 120.070313 -77.425781 119.625 -77.46875 C 119.175781 -77.519531 118.800781 -77.597656 118.5 -77.703125 L 104.703125 -35.84375 L 105.15625 -3.59375 C 105.15625 -0.800781 102.453125 1.34375 97.046875 2.84375 C 91.648438 4.34375 84.300781 5.09375 75 5.09375 Z M 72.296875 -102.15625 C 73.398438 -102.15625 74.300781 -102.53125 75 -103.28125 C 75.695313 -104.03125 76.046875 -104.90625 76.046875 -105.90625 C 76.046875 -107 75.695313 -107.894531 75 -108.59375 C 74.300781 -109.300781 73.398438 -109.65625 72.296875 -109.65625 C 71.296875 -109.65625 70.421875 -109.300781 69.671875 -108.59375 C 68.921875 -107.894531 68.546875 -107 68.546875 -105.90625 C 68.546875 -104.90625 68.921875 -104.03125 69.671875 -103.28125 C 70.421875 -102.53125 71.296875 -102.15625 72.296875 -102.15625 Z M 97.5 -97.34375 C 98.601563 -97.34375 99.503906 -97.71875 100.203125 -98.46875 C 100.898438 -99.21875 101.25 -100.09375 101.25 -101.09375 C 101.25 -102.195313 100.898438 -103.097656 100.203125 -103.796875 C 99.503906 -104.492188 98.601563 -104.84375 97.5 -104.84375 C 96.5 -104.84375 95.625 -104.492188 94.875 -103.796875 C 94.125 -103.097656 93.75 -102.195313 93.75 -101.09375 C 93.75 -100.09375 94.125 -99.21875 94.875 -98.46875 C 95.625 -97.71875 96.5 -97.34375 97.5 -97.34375 Z M 47.25 -97.34375 C 48.351563 -97.34375 49.253906 -97.71875 49.953125 -98.46875 C 50.648438 -99.21875 51 -100.09375 51 -101.09375 C 51 -102.195313 50.648438 -103.097656 49.953125 -103.796875 C 49.253906 -104.492188 48.351563 -104.84375 47.25 -104.84375 C 46.25 -104.84375 45.375 -104.492188 44.625 -103.796875 C 43.875 -103.097656 43.5 -102.195313 43.5 -101.09375 C 43.5 -100.09375 43.875 -99.21875 44.625 -98.46875 C 45.375 -97.71875 46.25 -97.34375 47.25 -97.34375 Z M 118.34375 -85.203125 C 119.445313 -85.203125 120.347656 -85.578125 121.046875 -86.328125 C 121.742188 -87.078125 122.09375 -87.953125 122.09375 -88.953125 C 122.09375 -90.046875 121.742188 -90.941406 121.046875 -91.640625 C 120.347656 -92.347656 119.445313 -92.703125 118.34375 -92.703125 C 117.34375 -92.703125 116.46875 -92.347656 115.71875 -91.640625 C 114.96875 -90.941406 114.59375 -90.046875 114.59375 -88.953125 C 114.59375 -87.953125 114.96875 -87.078125 115.71875 -86.328125 C 116.46875 -85.578125 117.34375 -85.203125 118.34375 -85.203125 Z M 26.25 -85.203125 C 27.351563 -85.203125 28.253906 -85.578125 28.953125 -86.328125 C 29.648438 -87.078125 30 -87.953125 30 -88.953125 C 30 -90.046875 29.648438 -90.941406 28.953125 -91.640625 C 28.253906 -92.347656 27.351563 -92.703125 26.25 -92.703125 C 25.25 -92.703125 24.375 -92.347656 23.625 -91.640625 C 22.875 -90.941406 22.5 -90.046875 22.5 -88.953125 C 22.5 -87.953125 22.875 -87.078125 23.625 -86.328125 C 24.375 -85.578125 25.25 -85.203125 26.25 -85.203125 Z M 50.09375 -26.09375 C 56.394531 -28.09375 64.695313 -29.09375 75 -29.09375 C 79.394531 -29.09375 83.894531 -28.867188 88.5 -28.421875 C 93.101563 -27.972656 96.953125 -27.195313 100.046875 -26.09375 L 100.046875 -28.796875 C 98.847656 -29.296875 96.773438 -29.769531 93.828125 -30.21875 C 90.878906 -30.675781 87.675781 -31.050781 84.21875 -31.34375 C 80.769531 -31.644531 77.695313 -31.796875 75 -31.796875 C 72.195313 -31.796875 69.070313 -31.644531 65.625 -31.34375 C 62.175781 -31.050781 59.023438 -30.675781 56.171875 -30.21875 C 53.328125 -29.769531 51.300781 -29.296875 50.09375 -28.796875 Z M 49.953125 -17.09375 C 56.253906 -19.09375 64.601563 -20.09375 75 -20.09375 C 79.195313 -20.09375 83.644531 -19.84375 88.34375 -19.34375 C 93.050781 -18.84375 97.003906 -18.09375 100.203125 -17.09375 L 100.203125 -19.796875 C 99.097656 -20.296875 97.070313 -20.769531 94.125 -21.21875 C 91.175781 -21.675781 87.953125 -22.050781 84.453125 -22.34375 C 80.953125 -22.644531 77.800781 -22.796875 75 -22.796875 C 72.300781 -22.796875 69.222656 -22.644531 65.765625 -22.34375 C 62.316406 -22.050781 59.117188 -21.675781 56.171875 -21.21875 C 53.222656 -20.769531 51.148438 -20.296875 49.953125 -19.796875 Z M 49.796875 -8.40625 C 52.492188 -9.300781 56.144531 -9.972656 60.75 -10.421875 C 65.351563 -10.867188 70.101563 -11.09375 75 -11.09375 C 79.800781 -11.09375 84.578125 -10.867188 89.328125 -10.421875 C 94.078125 -9.972656 97.75 -9.300781 100.34375 -8.40625 L 100.34375 -10.796875 C 99.144531 -11.296875 97.09375 -11.769531 94.1875 -12.21875 C 91.289063 -12.675781 88.09375 -13.050781 84.59375 -13.34375 C 81.09375 -13.644531 77.894531 -13.796875 75 -13.796875 C 72.195313 -13.796875 69.070313 -13.644531 65.625 -13.34375 C 62.175781 -13.050781 58.972656 -12.675781 56.015625 -12.21875 C 53.066406 -11.769531 50.992188 -11.296875 49.796875 -10.796875 Z M 49.796875 -8.40625"/></symbol><g style="fill:rgb(0%,0%,0%);fill-opacity:1;"><use xlink:href="#1" x="24.000001" y="153.500725"/></g></svg>