<?xml version="1.0" encoding="UTF-8"?>
<svg xmlns="http://www.w3.org/2000/svg" xmlns:xlink="http://www.w3.org/1999/xlink" width="198pt" height="198pt" viewBox="0 0 198 198" version="1.1"><symbol overflow="visible" id="1"><path style="stroke:none;" d="M 26.40625 0 L 26.40625 -13.65625 L 35.40625 -13.65625 L 35.40625 -23.84375 L 41.703125 -23.84375 L 47.40625 -34.046875 L 47.40625 -79.65625 L 41.703125 -89.84375 L 35.40625 -89.84375 L 35.40625 -107.84375 L 54 -107.84375 L 54 -103.5 L 63 -103.5 L 63 -107.25 L 87.15625 -107.25 L 87.15625 -103.5 L 96.15625 -103.5 L 96.15625 -107.84375 L 114.75 -107.84375 L 114.75 -89.84375 L 108.296875 -89.84375 L 102.75 -79.65625 L 102.75 -34.046875 L 108.296875 -23.84375 L 114.75 -23.84375 L 114.75 -13.65625 L 123.75 -13.65625 L 123.75 0 Z M 39.90625 -93.296875 L 110.25 -93.296875 L 110.25 -96.453125 L 39.90625 -96.453125 Z M 48.90625 -84.59375 L 101.25 -84.59375 L 103.046875 -87.75 L 47.09375 -87.75 Z M 46.65625 -25.34375 L 103.5 -25.34375 L 101.703125 -28.5 L 48.453125 -28.5 Z M 39.90625 -15.15625 L 110.25 -15.15625 L 110.25 -18.296875 L 39.90625 -18.296875 Z M 30.90625 -4.953125 L 119.25 -4.953125 L 119.25 -8.09375 L 30.90625 -8.09375 Z M 30.90625 -4.953125"/></symbol><g style="fill:rgb(0%,0%,0%);fill-opacity:1;"><use xlink:href="#1" x="24.000001" y="153.500738"/></g></svg>