<?xml version="1.0" encoding="UTF-8"?>
<svg xmlns="http://www.w3.org/2000/svg" xmlns:xlink="http://www.w3.org/1999/xlink" width="198pt" height="198pt" viewBox="0 0 198 198" version="1.1"><symbol overflow="visible" id="1"><path style="stroke:none;" d="M 22.953125 7.34375 L 22.953125 -7.203125 C 24.546875 -8.597656 26.789063 -9.769531 29.6875 -10.71875 C 32.59375 -11.675781 35.796875 -12.15625 39.296875 -12.15625 L 60.90625 -12.15625 C 63.195313 -12.15625 64.941406 -12.328125 66.140625 -12.671875 C 67.347656 -13.023438 67.953125 -14 67.953125 -15.59375 C 56.453125 -16.300781 50.703125 -18.753906 50.703125 -22.953125 C 50.703125 -23.546875 50.851563 -24.144531 51.15625 -24.75 L 56.40625 -38.25 C 52.90625 -40.445313 50.128906 -43.617188 48.078125 -47.765625 C 46.023438 -51.921875 45 -56.347656 45 -61.046875 C 45 -67.546875 47.296875 -73.769531 51.890625 -79.71875 C 56.492188 -85.675781 62.796875 -90.90625 70.796875 -95.40625 C 67.992188 -97 66.59375 -99.445313 66.59375 -102.75 C 66.59375 -105.050781 67.414063 -107.023438 69.0625 -108.671875 C 70.71875 -110.328125 72.695313 -111.15625 75 -111.15625 C 77.300781 -111.15625 79.273438 -110.328125 80.921875 -108.671875 C 82.578125 -107.023438 83.40625 -105.050781 83.40625 -102.75 C 83.40625 -99.445313 82.003906 -97 79.203125 -95.40625 C 87.203125 -90.90625 93.5 -85.675781 98.09375 -79.71875 C 102.695313 -73.769531 105 -67.546875 105 -61.046875 C 105 -56.347656 103.972656 -51.921875 101.921875 -47.765625 C 99.867188 -43.617188 97.09375 -40.445313 93.59375 -38.25 L 98.84375 -24.75 C 99.144531 -24.144531 99.296875 -23.546875 99.296875 -22.953125 C 99.296875 -18.753906 93.546875 -16.300781 82.046875 -15.59375 C 82.046875 -14 82.644531 -13.023438 83.84375 -12.671875 C 85.050781 -12.328125 86.800781 -12.15625 89.09375 -12.15625 L 110.703125 -12.15625 C 114.203125 -12.15625 117.398438 -11.675781 120.296875 -10.71875 C 123.203125 -9.769531 125.453125 -8.597656 127.046875 -7.203125 L 127.046875 7.34375 L 123.296875 7.34375 C 122.597656 3.050781 118.800781 0.90625 111.90625 0.90625 L 83.84375 0.90625 C 79.445313 0.90625 76.5 -0.445313 75 -3.15625 C 73.5 -0.445313 70.550781 0.90625 66.15625 0.90625 L 38.09375 0.90625 C 31.195313 0.90625 27.398438 3.050781 26.703125 7.34375 Z M 75 -98.40625 C 76.195313 -98.40625 77.21875 -98.828125 78.0625 -99.671875 C 78.914063 -100.523438 79.34375 -101.550781 79.34375 -102.75 C 79.34375 -103.851563 78.914063 -104.828125 78.0625 -105.671875 C 77.21875 -106.523438 76.195313 -106.953125 75 -106.953125 C 73.800781 -106.953125 72.773438 -106.523438 71.921875 -105.671875 C 71.078125 -104.828125 70.65625 -103.851563 70.65625 -102.75 C 70.65625 -101.550781 71.078125 -100.523438 71.921875 -99.671875 C 72.773438 -98.828125 73.800781 -98.40625 75 -98.40625 Z M 75 -39.59375 C 82.101563 -39.59375 87.753906 -41.519531 91.953125 -45.375 C 96.148438 -49.226563 98.25 -54.503906 98.25 -61.203125 C 98.25 -67.398438 96.070313 -73.347656 91.71875 -79.046875 C 87.375 -84.742188 81.800781 -89.296875 75 -92.703125 C 68.300781 -89.296875 62.75 -84.742188 58.34375 -79.046875 C 53.945313 -73.347656 51.75 -67.398438 51.75 -61.203125 C 51.75 -54.503906 53.875 -49.226563 58.125 -45.375 C 62.375 -41.519531 68 -39.59375 75 -39.59375 Z M 72.453125 -43.796875 L 72.453125 -70.5 L 60.453125 -70.5 L 60.453125 -75.296875 L 72.453125 -75.296875 L 72.453125 -87.296875 L 77.546875 -87.296875 L 77.546875 -75.296875 L 89.546875 -75.296875 L 89.546875 -70.5 L 77.546875 -70.5 L 77.546875 -43.796875 Z M 58.5 -28.953125 C 60.800781 -29.648438 63.300781 -30.171875 66 -30.515625 C 68.695313 -30.867188 71.695313 -31.046875 75 -31.046875 C 78.300781 -31.046875 81.328125 -30.867188 84.078125 -30.515625 C 86.828125 -30.171875 89.300781 -29.648438 91.5 -28.953125 L 88.5 -36.296875 C 86.695313 -35.898438 84.769531 -35.597656 82.71875 -35.390625 C 80.675781 -35.191406 78.101563 -35.09375 75 -35.09375 C 71.894531 -35.09375 69.316406 -35.191406 67.265625 -35.390625 C 65.222656 -35.597656 63.300781 -35.898438 61.5 -36.296875 Z M 75 -19.203125 C 77.601563 -19.203125 80.003906 -19.273438 82.203125 -19.421875 C 84.398438 -19.578125 86.300781 -19.851563 87.90625 -20.25 C 91.40625 -21.050781 93.15625 -21.953125 93.15625 -22.953125 C 93.15625 -24.046875 91.453125 -24.945313 88.046875 -25.65625 C 86.453125 -26.050781 84.550781 -26.320313 82.34375 -26.46875 C 80.144531 -26.625 77.695313 -26.703125 75 -26.703125 C 72.300781 -26.703125 69.875 -26.625 67.71875 -26.46875 C 65.570313 -26.320313 63.648438 -26.050781 61.953125 -25.65625 C 58.546875 -24.945313 56.84375 -24.046875 56.84375 -22.953125 C 56.84375 -21.953125 58.59375 -21.050781 62.09375 -20.25 C 63.800781 -19.851563 65.726563 -19.578125 67.875 -19.421875 C 70.019531 -19.273438 72.394531 -19.203125 75 -19.203125 Z M 26.84375 0.59375 C 27.945313 -0.800781 29.625 -1.820313 31.875 -2.46875 C 34.125 -3.125 36.800781 -3.453125 39.90625 -3.453125 L 66.15625 -3.453125 C 69.75 -3.453125 71.894531 -4.453125 72.59375 -6.453125 C 73.300781 -8.453125 73.65625 -11.453125 73.65625 -15.453125 L 71.09375 -15.453125 C 71.09375 -10.347656 68.242188 -7.796875 62.546875 -7.796875 L 39.75 -7.796875 C 33.144531 -7.796875 28.945313 -6.597656 27.15625 -4.203125 Z M 123.15625 0.59375 L 122.84375 -4.203125 C 121.050781 -6.597656 116.851563 -7.796875 110.25 -7.796875 L 87.453125 -7.796875 C 81.753906 -7.796875 78.90625 -10.347656 78.90625 -15.453125 L 76.34375 -15.453125 C 76.34375 -11.453125 76.691406 -8.453125 77.390625 -6.453125 C 78.097656 -4.453125 80.25 -3.453125 83.84375 -3.453125 L 110.09375 -3.453125 C 113.195313 -3.453125 115.898438 -3.125 118.203125 -2.46875 C 120.503906 -1.820313 122.15625 -0.800781 123.15625 0.59375 Z M 123.15625 0.59375"/></symbol><g style="fill:rgb(0%,0%,0%);fill-opacity:1;"><use xlink:href="#1" x="24.000001" y="153.500672"/></g></svg>