<?xml version="1.0" encoding="UTF-8"?>
<svg xmlns="http://www.w3.org/2000/svg" xmlns:xlink="http://www.w3.org/1999/xlink" width="198pt" height="198pt" viewBox="0 0 198 198" version="1.1"><symbol overflow="visible" id="1"><path style="stroke:none;" d="M 75 5.09375 C 70.394531 5.09375 66.242188 4.867188 62.546875 4.421875 C 58.847656 3.972656 55.648438 3.398438 52.953125 2.703125 C 47.546875 1.203125 44.84375 -0.894531 44.84375 -3.59375 L 45.296875 -35.40625 L 31.5 -77.703125 C 31.195313 -77.597656 30.820313 -77.519531 30.375 -77.46875 C 29.925781 -77.425781 29.398438 -77.40625 28.796875 -77.40625 C 25.992188 -77.40625 23.617188 -78.378906 21.671875 -80.328125 C 19.722656 -82.273438 18.75 -84.800781 18.75 -87.90625 C 18.75 -90.695313 19.75 -93.039063 21.75 -94.9375 C 23.75 -96.84375 26.148438 -97.796875 28.953125 -97.796875 C 31.847656 -97.796875 34.269531 -96.820313 36.21875 -94.875 C 38.175781 -92.925781 39.15625 -90.5 39.15625 -87.59375 C 39.15625 -86 38.753906 -84.375 37.953125 -82.71875 C 37.148438 -81.070313 36.050781 -79.847656 34.65625 -79.046875 L 53.09375 -49.203125 L 49.953125 -89.703125 L 49.65625 -89.703125 C 47.050781 -89.703125 44.722656 -90.703125 42.671875 -92.703125 C 40.617188 -94.703125 39.59375 -97.101563 39.59375 -99.90625 C 39.59375 -102.695313 40.566406 -105.117188 42.515625 -107.171875 C 44.472656 -109.222656 46.851563 -110.25 49.65625 -110.25 C 52.445313 -110.25 54.867188 -109.273438 56.921875 -107.328125 C 58.972656 -105.378906 60 -102.953125 60 -100.046875 C 60 -97.847656 59.421875 -95.898438 58.265625 -94.203125 C 57.117188 -92.503906 55.5 -91.253906 53.40625 -90.453125 L 66.90625 -52.34375 L 73.203125 -94.796875 C 70.898438 -95.203125 68.921875 -96.328125 67.265625 -98.171875 C 65.617188 -100.023438 64.796875 -102.25 64.796875 -104.84375 C 64.796875 -107.75 65.796875 -110.175781 67.796875 -112.125 C 69.796875 -114.070313 72.195313 -115.046875 75 -115.046875 C 77.800781 -115.046875 80.203125 -114.070313 82.203125 -112.125 C 84.203125 -110.175781 85.203125 -107.75 85.203125 -104.84375 C 85.203125 -102.25 84.375 -100.023438 82.71875 -98.171875 C 81.070313 -96.328125 79.097656 -95.203125 76.796875 -94.796875 L 83.09375 -52.34375 L 96.59375 -90.453125 C 94.5 -91.253906 92.875 -92.503906 91.71875 -94.203125 C 90.570313 -95.898438 90 -97.847656 90 -100.046875 C 90 -102.953125 91.023438 -105.378906 93.078125 -107.328125 C 95.128906 -109.273438 97.550781 -110.25 100.34375 -110.25 C 103.25 -110.25 105.648438 -109.222656 107.546875 -107.171875 C 109.453125 -105.117188 110.40625 -102.695313 110.40625 -99.90625 C 110.40625 -97.101563 109.378906 -94.703125 107.328125 -92.703125 C 105.273438 -90.703125 102.945313 -89.703125 100.34375 -89.703125 L 100.046875 -89.703125 L 96.90625 -49.203125 L 115.34375 -79.046875 C 114.050781 -79.847656 112.976563 -81.070313 112.125 -82.71875 C 111.269531 -84.375 110.84375 -86 110.84375 -87.59375 C 110.84375 -90.5 111.816406 -92.925781 113.765625 -94.875 C 115.722656 -96.820313 118.148438 -97.796875 121.046875 -97.796875 C 123.953125 -97.796875 126.378906 -96.84375 128.328125 -94.9375 C 130.273438 -93.039063 131.25 -90.695313 131.25 -87.90625 C 131.25 -84.800781 130.273438 -82.273438 128.328125 -80.328125 C 126.378906 -78.378906 124.003906 -77.40625 121.203125 -77.40625 C 120.597656 -77.40625 120.070313 -77.425781 119.625 -77.46875 C 119.175781 -77.519531 118.800781 -77.597656 118.5 -77.703125 L 104.703125 -35.40625 L 105.15625 -3.59375 C 105.15625 -0.800781 102.453125 1.34375 97.046875 2.84375 C 91.648438 4.34375 84.300781 5.09375 75 5.09375 Z M 75.15625 -99.296875 C 76.550781 -99.296875 77.773438 -99.84375 78.828125 -100.9375 C 79.878906 -102.039063 80.40625 -103.394531 80.40625 -105 C 80.40625 -106.5 79.878906 -107.75 78.828125 -108.75 C 77.773438 -109.75 76.445313 -110.25 74.84375 -110.25 C 73.445313 -110.25 72.222656 -109.75 71.171875 -108.75 C 70.117188 -107.75 69.59375 -106.5 69.59375 -105 C 69.59375 -103.394531 70.117188 -102.039063 71.171875 -100.9375 C 72.222656 -99.84375 73.550781 -99.296875 75.15625 -99.296875 Z M 100.046875 -94.34375 C 101.742188 -94.34375 103.09375 -94.894531 104.09375 -96 C 105.09375 -97.101563 105.59375 -98.453125 105.59375 -100.046875 C 105.59375 -101.546875 105.066406 -102.796875 104.015625 -103.796875 C 102.972656 -104.796875 101.75 -105.296875 100.34375 -105.296875 C 98.445313 -105.296875 97.023438 -104.769531 96.078125 -103.71875 C 95.128906 -102.675781 94.65625 -101.351563 94.65625 -99.75 C 94.65625 -98.25 95.15625 -96.972656 96.15625 -95.921875 C 97.15625 -94.867188 98.453125 -94.34375 100.046875 -94.34375 Z M 49.953125 -94.34375 C 51.546875 -94.34375 52.84375 -94.867188 53.84375 -95.921875 C 54.84375 -96.972656 55.34375 -98.25 55.34375 -99.75 C 55.34375 -101.351563 54.84375 -102.675781 53.84375 -103.71875 C 52.84375 -104.769531 51.445313 -105.296875 49.65625 -105.296875 C 48.25 -105.296875 47.019531 -104.796875 45.96875 -103.796875 C 44.925781 -102.796875 44.40625 -101.546875 44.40625 -100.046875 C 44.40625 -98.453125 44.925781 -97.101563 45.96875 -96 C 47.019531 -94.894531 48.347656 -94.34375 49.953125 -94.34375 Z M 121.046875 -82.046875 C 122.742188 -82.046875 124.09375 -82.59375 125.09375 -83.6875 C 126.09375 -84.789063 126.59375 -86.144531 126.59375 -87.75 C 126.59375 -89.25 126.066406 -90.5 125.015625 -91.5 C 123.972656 -92.5 122.75 -93 121.34375 -93 C 119.550781 -93 118.15625 -92.472656 117.15625 -91.421875 C 116.15625 -90.367188 115.65625 -89.046875 115.65625 -87.453125 C 115.65625 -85.953125 116.15625 -84.675781 117.15625 -83.625 C 118.15625 -82.570313 119.453125 -82.046875 121.046875 -82.046875 Z M 28.953125 -82.046875 C 30.546875 -82.046875 31.84375 -82.570313 32.84375 -83.625 C 33.84375 -84.675781 34.34375 -85.953125 34.34375 -87.453125 C 34.34375 -89.046875 33.84375 -90.367188 32.84375 -91.421875 C 31.84375 -92.472656 30.445313 -93 28.65625 -93 C 27.25 -93 26.019531 -92.5 24.96875 -91.5 C 23.925781 -90.5 23.40625 -89.25 23.40625 -87.75 C 23.40625 -86.144531 23.925781 -84.789063 24.96875 -83.6875 C 26.019531 -82.59375 27.347656 -82.046875 28.953125 -82.046875 Z M 70.046875 -39.90625 C 70.847656 -40 71.671875 -40.046875 72.515625 -40.046875 C 73.367188 -40.046875 74.195313 -40.046875 75 -40.046875 C 75.800781 -40.046875 76.625 -40.046875 77.46875 -40.046875 C 78.320313 -40.046875 79.148438 -40 79.953125 -39.90625 L 75 -82.203125 Z M 58.953125 -38.84375 C 59.953125 -39.050781 60.972656 -39.203125 62.015625 -39.296875 C 63.066406 -39.398438 64.195313 -39.5 65.40625 -39.59375 L 54.90625 -74.25 Z M 91.046875 -38.84375 L 95.09375 -74.25 L 84.59375 -39.59375 C 85.800781 -39.5 86.925781 -39.398438 87.96875 -39.296875 C 89.019531 -39.203125 90.046875 -39.050781 91.046875 -38.84375 Z M 49.203125 -36.75 L 54.59375 -38.09375 L 40.203125 -63.15625 Z M 100.796875 -36.75 L 109.796875 -63.15625 L 95.40625 -38.09375 Z M 52.203125 -27.90625 C 58.203125 -29.90625 65.800781 -30.90625 75 -30.90625 C 84.195313 -30.90625 91.796875 -29.90625 97.796875 -27.90625 L 97.796875 -32.84375 C 95.398438 -33.644531 92.023438 -34.34375 87.671875 -34.9375 C 83.328125 -35.539063 79.101563 -35.84375 75 -35.84375 C 71 -35.84375 66.773438 -35.539063 62.328125 -34.9375 C 57.878906 -34.34375 54.503906 -33.644531 52.203125 -32.84375 Z M 52.046875 -18.90625 C 55.046875 -19.90625 58.445313 -20.65625 62.25 -21.15625 C 66.050781 -21.65625 70.300781 -21.90625 75 -21.90625 C 84.300781 -21.90625 91.953125 -20.90625 97.953125 -18.90625 L 97.953125 -23.84375 C 95.453125 -24.644531 91.972656 -25.34375 87.515625 -25.9375 C 83.066406 -26.539063 78.894531 -26.84375 75 -26.84375 C 71 -26.84375 66.820313 -26.539063 62.46875 -25.9375 C 58.125 -25.34375 54.648438 -24.644531 52.046875 -23.84375 Z M 51.90625 -10.203125 C 57.300781 -12.003906 65 -12.90625 75 -12.90625 C 85 -12.90625 92.695313 -12.003906 98.09375 -10.203125 L 98.09375 -14.84375 C 95.59375 -15.644531 92.191406 -16.34375 87.890625 -16.9375 C 83.597656 -17.539063 79.300781 -17.84375 75 -17.84375 C 70.894531 -17.84375 66.644531 -17.539063 62.25 -16.9375 C 57.851563 -16.34375 54.40625 -15.644531 51.90625 -14.84375 Z M 75 0.75 C 90.601563 0.75 98.40625 -0.800781 98.40625 -3.90625 C 98.40625 -5.40625 96.351563 -6.550781 92.25 -7.34375 C 90.144531 -7.75 87.664063 -8.050781 84.8125 -8.25 C 81.96875 -8.445313 78.695313 -8.546875 75 -8.546875 C 71.300781 -8.546875 68.023438 -8.46875 65.171875 -8.3125 C 62.328125 -8.164063 59.90625 -7.84375 57.90625 -7.34375 C 53.695313 -6.445313 51.59375 -5.300781 51.59375 -3.90625 C 51.59375 -0.800781 59.394531 0.75 75 0.75 Z M 75 0.75"/></symbol><g style="fill:rgb(0%,0%,0%);fill-opacity:1;"><use xlink:href="#1" x="24.000001" y="153.500646"/></g></svg>