<?xml version="1.0" encoding="UTF-8"?>
<svg xmlns="http://www.w3.org/2000/svg" xmlns:xlink="http://www.w3.org/1999/xlink" width="198pt" height="198pt" viewBox="0 0 198 198" version="1.1"><symbol overflow="visible" id="1"><path style="stroke:none;" d="M 26.40625 0 L 26.40625 -13.65625 L 35.40625 -13.65625 L 35.40625 -23.84375 L 41.703125 -23.84375 L 47.40625 -34.046875 L 47.40625 -79.65625 L 41.703125 -89.84375 L 35.40625 -89.84375 L 35.40625 -107.84375 L 54 -107.84375 L 54 -103.5 L 63 -103.5 L 63 -107.25 L 87.15625 -107.25 L 87.15625 -103.5 L 96.15625 -103.5 L 96.15625 -107.84375 L 114.75 -107.84375 L 114.75 -89.84375 L 108.296875 -89.84375 L 102.75 -79.65625 L 102.75 -34.046875 L 108.296875 -23.84375 L 114.75 -23.84375 L 114.75 -13.65625 L 123.75 -13.65625 L 123.75 0 Z M 41.84375 -94.046875 L 108.296875 -94.046875 L 108.296875 -102.90625 L 100.046875 -102.90625 L 100.046875 -98.546875 L 83.25 -98.546875 L 83.25 -102.296875 L 66.90625 -102.296875 L 66.90625 -98.546875 L 50.09375 -98.546875 L 50.09375 -102.90625 L 41.84375 -102.90625 Z M 51.75 -83.84375 L 98.703125 -83.84375 L 101.546875 -89.09375 L 48.59375 -89.09375 Z M 53.84375 -34.796875 L 96.296875 -34.796875 L 96.296875 -78.90625 L 53.84375 -78.90625 Z M 48.59375 -24.59375 L 101.546875 -24.59375 L 98.546875 -29.84375 L 51.453125 -29.84375 Z M 41.84375 -14.40625 L 108.296875 -14.40625 L 108.296875 -19.65625 L 41.84375 -19.65625 Z M 32.84375 -4.203125 L 117.296875 -4.203125 L 117.296875 -9.453125 L 32.84375 -9.453125 Z M 32.84375 -4.203125"/></symbol><g style="fill:rgb(0%,0%,0%);fill-opacity:1;"><use xlink:href="#1" x="24.000001" y="153.500659"/></g></svg>