<?xml version="1.0" encoding="UTF-8"?>
<svg xmlns="http://www.w3.org/2000/svg" xmlns:xlink="http://www.w3.org/1999/xlink" width="198pt" height="198pt" viewBox="0 0 198 198" version="1.1"><symbol overflow="visible" id="1"><path style="stroke:none;" d="M 50.40625 0 C 50.40625 -4.894531 51.003906 -9.394531 52.203125 -13.5 C 53.398438 -17.601563 54.75 -20.703125 56.25 -22.796875 C 57.050781 -23.898438 58.273438 -25.375 59.921875 -27.21875 C 61.578125 -29.070313 63.753906 -31.347656 66.453125 -34.046875 C 69.648438 -37.242188 71.921875 -39.867188 73.265625 -41.921875 C 74.617188 -43.972656 75.296875 -46.050781 75.296875 -48.15625 C 75.296875 -49.15625 75.195313 -50.050781 75 -50.84375 L 74.40625 -50.84375 C 74.300781 -50.050781 73.570313 -48.90625 72.21875 -47.40625 C 70.875 -45.90625 69.203125 -44.851563 67.203125 -44.25 C 66.203125 -43.945313 64.875 -43.671875 63.21875 -43.421875 C 61.570313 -43.171875 59.597656 -42.945313 57.296875 -42.75 C 56.097656 -41.945313 54.820313 -40.84375 53.46875 -39.4375 C 52.125 -38.039063 50.703125 -36.34375 49.203125 -34.34375 C 46.203125 -30.445313 43.5 -28.5 41.09375 -28.5 C 38.5 -28.5 36.375 -28.796875 34.71875 -29.390625 C 33.070313 -29.992188 31.75 -31.097656 30.75 -32.703125 L 24 -43.34375 C 24.695313 -44.644531 25.421875 -46.296875 26.171875 -48.296875 C 26.921875 -50.296875 27.75 -52.546875 28.65625 -55.046875 C 29.550781 -57.648438 30.472656 -59.875 31.421875 -61.71875 C 32.367188 -63.570313 33.242188 -65 34.046875 -66 C 35.742188 -68.195313 37.195313 -71.445313 38.40625 -75.75 C 39.195313 -78.644531 39.96875 -81.019531 40.71875 -82.875 C 41.46875 -84.726563 42.539063 -86.351563 43.9375 -87.75 C 45.34375 -89.144531 47.445313 -90.59375 50.25 -92.09375 C 51.144531 -95 51.59375 -98.050781 51.59375 -101.25 C 51.59375 -102.851563 51.492188 -104.425781 51.296875 -105.96875 C 51.097656 -107.519531 50.800781 -109.097656 50.40625 -110.703125 L 54 -110.703125 C 59.300781 -108.703125 62.5 -105.203125 63.59375 -100.203125 L 64.5 -100.203125 C 64.894531 -101.097656 65.191406 -102.59375 65.390625 -104.6875 C 65.597656 -106.789063 65.703125 -108.546875 65.703125 -109.953125 C 65.703125 -110.847656 65.675781 -111.742188 65.625 -112.640625 C 65.570313 -113.546875 65.5 -114.347656 65.40625 -115.046875 L 70.65625 -115.046875 C 73.65625 -113.453125 76.050781 -111.003906 77.84375 -107.703125 C 79.644531 -104.398438 80.546875 -100.847656 80.546875 -97.046875 C 86.742188 -95.347656 92.617188 -92.195313 98.171875 -87.59375 C 103.722656 -83 108.570313 -77.148438 112.71875 -70.046875 C 116.875 -62.953125 119.898438 -54.800781 121.796875 -45.59375 C 123.203125 -38.695313 124.253906 -31.570313 124.953125 -24.21875 C 125.648438 -16.875 126 -9.25 126 -1.34375 L 126 0 Z M 58.953125 -8.09375 L 116.703125 -8.09375 L 116.703125 -12.15625 C 116.703125 -25.351563 115.523438 -36.773438 113.171875 -46.421875 C 110.828125 -56.078125 107.65625 -64.128906 103.65625 -70.578125 C 99.65625 -77.023438 95.078125 -82.148438 89.921875 -85.953125 C 84.773438 -89.753906 79.351563 -92.453125 73.65625 -94.046875 C 73.945313 -96.046875 74.09375 -97.796875 74.09375 -99.296875 C 74.09375 -103.398438 72.59375 -106.953125 69.59375 -109.953125 C 69.695313 -109.453125 69.75 -108.953125 69.75 -108.453125 C 69.75 -107.953125 69.75 -107.453125 69.75 -106.953125 C 69.75 -104.453125 69.421875 -101.953125 68.765625 -99.453125 C 68.117188 -96.953125 67.347656 -95.148438 66.453125 -94.046875 L 59.546875 -94.046875 L 59.546875 -95.546875 C 59.546875 -97.953125 59.269531 -99.800781 58.71875 -101.09375 C 58.175781 -102.394531 57.101563 -103.695313 55.5 -105 C 55.894531 -103.5 56.09375 -101.597656 56.09375 -99.296875 C 56.09375 -96.398438 55.789063 -93.800781 55.1875 -91.5 C 54.59375 -89.195313 53.945313 -87.796875 53.25 -87.296875 C 52.945313 -87.097656 52.46875 -86.75 51.8125 -86.25 C 51.164063 -85.75 50.394531 -85.097656 49.5 -84.296875 C 48 -82.992188 46.820313 -81.34375 45.96875 -79.34375 C 45.125 -77.34375 44.050781 -74.34375 42.75 -70.34375 C 42.050781 -68.144531 41 -66.25 39.59375 -64.65625 C 39 -63.945313 38.273438 -62.769531 37.421875 -61.125 C 36.578125 -59.476563 35.703125 -57.40625 34.796875 -54.90625 C 33.898438 -52.40625 33.078125 -50.253906 32.328125 -48.453125 C 31.578125 -46.648438 30.953125 -45.300781 30.453125 -44.40625 L 31.796875 -41.84375 C 33.097656 -39.445313 34.097656 -37.75 34.796875 -36.75 C 35.492188 -35.75 36.289063 -35.125 37.1875 -34.875 C 38.09375 -34.625 39.394531 -34.5 41.09375 -34.5 C 42.09375 -34.5 43.09375 -34.773438 44.09375 -35.328125 C 45.09375 -35.878906 46.242188 -37.15625 47.546875 -39.15625 C 48.453125 -40.445313 49.726563 -41.941406 51.375 -43.640625 C 53.019531 -45.347656 54.34375 -46.648438 55.34375 -47.546875 C 55.644531 -47.546875 56.570313 -47.695313 58.125 -48 C 59.675781 -48.300781 61.347656 -48.675781 63.140625 -49.125 C 64.941406 -49.570313 66.296875 -49.945313 67.203125 -50.25 C 68.597656 -50.75 69.742188 -51.570313 70.640625 -52.71875 C 71.546875 -53.875 72.050781 -54.800781 72.15625 -55.5 L 79.203125 -55.5 L 81.453125 -47.40625 C 81.347656 -45.5 81.019531 -43.71875 80.46875 -42.0625 C 79.925781 -40.414063 79.101563 -38.992188 78 -37.796875 L 71.84375 -31.046875 C 67.445313 -26.242188 64.195313 -22.269531 62.09375 -19.125 C 60 -15.976563 58.953125 -12.503906 58.953125 -8.703125 Z M 102.90625 -10.046875 C 103.300781 -12.847656 103.570313 -15.898438 103.71875 -19.203125 C 103.875 -22.503906 103.953125 -26.003906 103.953125 -29.703125 C 103.953125 -40.003906 103.25 -48.351563 101.84375 -54.75 C 100.445313 -61.144531 98.375 -66.441406 95.625 -70.640625 C 92.875 -74.847656 89.398438 -78.703125 85.203125 -82.203125 L 86.546875 -83.09375 C 91.242188 -80.195313 95.84375 -75.546875 100.34375 -69.140625 C 104.84375 -62.742188 108.046875 -54.25 109.953125 -43.65625 C 110.953125 -38.351563 111.675781 -32.898438 112.125 -27.296875 C 112.570313 -21.703125 112.796875 -15.953125 112.796875 -10.046875 Z M 53.703125 -74.09375 C 51.398438 -74.09375 49.847656 -74.394531 49.046875 -75 L 48.90625 -75.59375 L 48.90625 -76.65625 C 48.90625 -77.75 49.425781 -78.59375 50.46875 -79.1875 C 51.519531 -79.789063 52.847656 -80.09375 54.453125 -80.09375 C 55.046875 -80.09375 55.664063 -80.039063 56.3125 -79.9375 C 56.96875 -79.84375 57.597656 -79.695313 58.203125 -79.5 L 62.40625 -78.296875 L 62.40625 -76.953125 L 61.203125 -77.09375 C 59.898438 -77.09375 58.648438 -76.59375 57.453125 -75.59375 C 56.253906 -74.59375 55.003906 -74.09375 53.703125 -74.09375 Z M 38.703125 -41.84375 C 38.097656 -41.945313 37.367188 -42.320313 36.515625 -42.96875 C 35.671875 -43.625 35.050781 -44.351563 34.65625 -45.15625 C 35.75 -49.65625 39.144531 -52.050781 44.84375 -52.34375 L 45.453125 -51.59375 C 43.453125 -50.195313 41.898438 -48.570313 40.796875 -46.71875 C 39.703125 -44.875 39.003906 -43.25 38.703125 -41.84375 Z M 38.703125 -41.84375"/></symbol><g style="fill:rgb(0%,0%,0%);fill-opacity:1;"><use xlink:href="#1" x="24.000001" y="153.500685"/></g></svg>